<!-- Generated by IcoMoon.io -->
<svg version="1.1" xmlns="http://www.w3.org/2000/svg" width="2404" height="1024" viewBox="0 0 2404 1024">
<title></title>
<g id="icomoon-ignore">
</g>
<path d="M130.435 236.695l-39.652-24c-24.869-15.13-42.609-30-53.217-44.609-10.435-14.783-15.652-31.739-15.652-50.87 0-28.696 9.913-52 29.739-69.913 20-17.913 45.913-26.87 77.739-26.87 30.435 0 58.348 8.522 83.739 25.565v59.217c-26.261-25.217-54.522-37.826-84.783-37.826-17.043 0-31.043 4-42 12-10.957 7.826-16.435 17.913-16.435 30.261 0 10.957 4 21.218 12 30.783s20.956 19.565 38.869 30l39.913 23.478c44.522 26.435 66.784 60.175 66.784 101.217 0 29.217-9.827 52.956-29.479 71.217-19.478 18.261-44.869 27.392-76.174 27.392-36 0-68.783-11.044-98.348-33.131v-66.259c28.174 35.651 60.783 53.477 97.826 53.477 16.348 0 29.913-4.521 40.696-13.566 10.957-9.216 16.435-20.696 16.435-34.433 0-22.261-16-43.306-48-63.132zM541.825 25.131h52.175v364.435h-52.175v-158.609h-204.782v158.609h-52.173v-364.435h52.173v157.565h204.782v-157.565zM853.566 19.913c56.347 0 103.217 17.826 140.609 53.478 37.565 35.652 56.347 80.348 56.347 134.087s-18.957 98.261-56.87 133.565c-37.739 35.13-85.39 52.696-142.957 52.696-54.955 0-100.782-17.566-137.476-52.696-36.523-35.304-54.784-79.478-54.784-132.521 0-54.435 18.434-99.478 55.305-135.13s83.478-53.478 139.827-53.478zM855.652 69.478c-41.739 0-76.088 13.044-103.043 39.131-26.782 26.087-40.174 59.391-40.174 99.913 0 39.304 13.479 72.001 40.435 98.086 26.956 26.088 60.696 39.13 101.218 39.13 40.695 0 74.61-13.303 101.739-39.912 27.305-26.608 40.956-59.739 40.956-99.392 0-38.609-13.65-71.044-40.956-97.304-27.129-26.435-60.521-39.652-100.174-39.652zM1111.565 389.565v-364.956h115.565c34.783 0 62.522 9.391 83.218 28.174s31.043 44 31.043 75.652c0 21.218-5.305 40-15.912 56.348-10.61 16.348-25.13 28.261-43.567 35.739-18.434 7.305-44.869 10.956-79.304 10.956h-38.607v158.088h-52.435zM1217.999 71.044h-53.998v114h57.13c21.217 0 37.565-4.957 49.043-14.87 11.478-10.087 17.217-24.435 17.217-43.043 0-37.391-23.129-56.087-69.392-56.087zM375.652 910.347c0 31.132-10.696 56.002-32.087 74.61-21.217 18.608-50.957 27.913-89.217 27.913h-208.957v-361.565h174.783c22.608 0 42.262 2.175 58.957 6.522 16.869 4.348 30.433 10.347 40.695 18 10.26 7.477 17.913 16.348 22.955 26.608 5.044 10.26 7.566 21.477 7.566 33.652 0 13.219-2.609 25.478-7.827 36.784-5.218 11.13-11.738 20.346-19.565 27.65-7.651 7.13-15.391 12.174-23.218 15.131 24.696 9.739 43.48 22.087 56.349 37.044 13.043 14.783 19.565 33.999 19.565 57.651zM248.347 755.391c0-17.392-5.739-28.957-17.217-34.696s-29.391-8.608-53.739-8.608h-22.957v86.608h23.478c24.87 0 42.782-2.869 53.738-8.608 11.13-5.739 16.696-17.306 16.696-34.696zM266.086 905.913c0-30.956-22.435-46.434-67.304-46.434h-44.348v92.607h44.348c44.869 0 67.304-15.391 67.304-46.173zM826.956 1012.87h-111.652l-29.478-73.305h-157.044l-30.001 73.305h-111.652l159.913-361.565h120.523l159.39 361.565zM660.783 876.695l-52.956-132-53.48 132h106.436zM1255.304 1012.87h-133.042l-138.262-169.305v169.305h-109.043v-361.565h109.043v161.739l130.956-161.739h118.435l-134.607 169.305 156.521 192.26zM1575.391 1012.87h-272.609v-361.565h268.174v72.521h-159.13v66.262h151.826v72.782h-151.826v77.219h163.564v72.782zM1998.783 1012.87h-117.132l-28.434-64.174c-10.436-23.479-19.826-40.608-28.173-51.391-8.348-10.957-16.522-17.913-24.523-20.87-7.827-3.13-18-4.695-30.522-4.695h-12.261v141.129h-109.043v-361.565h185.478c29.914 0 54.435 6.086 73.565 18.261s32.87 26.958 41.218 44.348c8.521 17.392 12.782 33.914 12.782 49.566 0 18.261-3.566 33.739-10.696 46.434-6.957 12.522-14.347 21.653-22.174 27.392-7.825 5.739-16.609 11.217-26.348 16.435 11.654 6.781 21.219 14.868 28.696 24.26 7.653 9.218 18 28 31.043 56.349l36.523 78.521zM1850.608 765.565c0-16.696-5.478-28.347-16.435-34.956s-28.781-9.913-53.477-9.913h-22.958v87.131h23.479c26.608 0 44.782-2.869 54.521-8.611 9.915-5.912 14.87-17.13 14.87-33.652zM2385.386 651.304l-141.646 195.913v165.652h-109.045v-163.566l-144.259-197.999h113.217l82.957 113.74 83.22-113.74h115.556z"></path>
</svg>
